<svg width="766" height="576" viewBox="0 0 766 576" fill="none" xmlns="http://www.w3.org/2000/svg">
<path d="M765.999 355.891C766.133 434.617 738.046 511.141 686.174 573.385H79.8264C27.9544 511.141 -0.132106 434.617 0.000467178 355.891C0.000467178 159.332 171.481 0 383.009 0C594.537 0 765.999 159.332 765.999 355.891Z" fill="white"/>
<path opacity="0.1" d="M765.999 355.891C766.133 434.617 738.046 511.141 686.174 573.385H79.8264C27.9544 511.141 -0.132106 434.617 0.000467178 355.891C0.000467178 159.332 171.481 0 383.009 0C594.537 0 765.999 159.332 765.999 355.891Z" fill="#367CFF"/>
<path d="M72.367 575.95H693.633C693.952 575.95 694.258 575.832 694.484 575.622C694.71 575.413 694.837 575.128 694.837 574.831C694.837 574.535 694.71 574.25 694.484 574.041C694.258 573.831 693.952 573.713 693.633 573.713H72.367C72.0478 573.713 71.7416 573.831 71.5159 574.041C71.2901 574.25 71.1633 574.535 71.1633 574.831C71.1633 575.128 71.2901 575.413 71.5159 575.622C71.7416 575.832 72.0478 575.95 72.367 575.95Z" fill="#292A2E"/>
</svg>
