<svg width="358" height="395" viewBox="0 0 358 395" fill="none" xmlns="http://www.w3.org/2000/svg">
<path d="M357.651 130.305C357.34 129.673 356.847 129.156 356.238 128.825C355.629 128.494 354.935 128.365 354.251 128.457C354.258 128.415 354.253 128.371 354.24 128.331C354.226 128.291 354.202 128.254 354.172 128.225C354.141 128.196 354.104 128.176 354.064 128.165C354.023 128.154 353.981 128.153 353.941 128.163L356.245 126.466C356.935 125.981 357.43 125.256 357.64 124.425C357.85 123.594 357.76 122.713 357.387 121.945C356.994 121.199 356.346 120.629 355.568 120.346C354.789 120.063 353.937 120.087 353.175 120.414C353.18 120.38 353.159 120.348 353.154 120.314L354.101 119.616C354.749 119.157 355.222 118.481 355.441 117.704C355.659 116.927 355.61 116.096 355.301 115.352C355.098 114.889 354.798 114.479 354.422 114.15C354.046 113.821 353.603 113.583 353.126 113.451C352.649 113.319 352.15 113.298 351.664 113.388C351.179 113.479 350.718 113.679 350.317 113.974L348.131 115.584C348.125 115.571 348.131 115.555 348.122 115.543C348.113 115.531 348.091 115.526 348.078 115.512C348.58 114.932 348.875 114.194 348.915 113.419C348.954 112.644 348.737 111.879 348.297 111.248C347.266 109.542 344.884 109.893 343.472 110.931L330.61 120.056L332.909 116.08C333.372 115.314 333.535 114.397 333.365 113.513C333.195 112.628 332.705 111.844 331.993 111.317C331.617 111.058 331.193 110.88 330.748 110.795C330.303 110.71 329.846 110.719 329.404 110.822C328.963 110.925 328.546 111.119 328.18 111.393C327.814 111.666 327.506 112.014 327.275 112.414L314.722 134.129C313.25 136.676 312.802 139.713 313.474 142.594C314.146 145.475 315.884 147.974 318.32 149.559C321.146 151.397 324.441 152.327 327.784 152.228C331.127 152.13 334.365 151.008 337.083 149.006L356.509 134.7C357.153 134.207 357.616 133.504 357.823 132.707C358.03 131.909 357.97 131.063 357.651 130.305Z" fill="#F9C2AD"/>
<g opacity="0.25">
<path d="M335.403 124.607C335.451 124.673 335.522 124.718 335.601 124.731C335.68 124.744 335.761 124.725 335.827 124.678L348.048 115.98C348.112 115.931 348.155 115.859 348.167 115.778C348.18 115.697 348.162 115.614 348.116 115.547C348.071 115.479 348.002 115.433 347.924 115.417C347.845 115.401 347.764 115.417 347.697 115.461L335.477 124.158C335.41 124.206 335.364 124.279 335.349 124.362C335.335 124.444 335.353 124.529 335.399 124.598L335.403 124.607Z" fill="#0C0C0C"/>
</g>
<g opacity="0.25">
<path d="M338.988 130.25C339.035 130.317 339.106 130.361 339.185 130.375C339.264 130.388 339.345 130.369 339.411 130.322L353.05 120.618C353.083 120.594 353.111 120.564 353.133 120.529C353.155 120.494 353.17 120.455 353.177 120.414C353.185 120.373 353.184 120.331 353.175 120.291C353.167 120.25 353.151 120.211 353.127 120.177C353.079 120.111 353.008 120.066 352.929 120.051C352.849 120.036 352.767 120.053 352.699 120.098L339.057 129.804C338.99 129.852 338.944 129.925 338.93 130.008C338.915 130.09 338.933 130.175 338.98 130.244L338.988 130.25Z" fill="#0C0C0C"/>
</g>
<g opacity="0.25">
<path d="M342.836 136.386C342.883 136.453 342.954 136.497 343.034 136.511C343.113 136.524 343.194 136.505 343.26 136.458L354.139 128.717C354.172 128.693 354.201 128.663 354.223 128.628C354.244 128.593 354.259 128.554 354.266 128.514C354.274 128.473 354.273 128.431 354.264 128.39C354.256 128.35 354.239 128.311 354.216 128.277C354.193 128.243 354.164 128.214 354.13 128.192C354.096 128.169 354.058 128.154 354.018 128.147C353.978 128.139 353.938 128.14 353.898 128.149C353.859 128.158 353.821 128.174 353.788 128.198L342.909 135.94C342.876 135.964 342.848 135.994 342.826 136.029C342.804 136.064 342.789 136.103 342.782 136.144C342.775 136.184 342.775 136.226 342.784 136.267C342.792 136.307 342.809 136.346 342.832 136.38L342.836 136.386Z" fill="#0C0C0C"/>
</g>
<path d="M312.258 121.982L268.454 183.602L221.766 121.982L187.99 157.584L251.784 242.474L252.2 243.079C254.754 246.672 258.156 249.539 262.085 251.408C266.015 253.277 270.343 254.087 274.662 253.762C278.981 253.438 283.148 251.988 286.771 249.551C290.394 247.114 293.354 243.77 295.371 239.832L349.791 149.502L312.258 121.982Z" fill="#01A2FD"/>
<path d="M264.84 191.36C264.76 191.36 264.681 191.338 264.611 191.298C264.541 191.258 264.483 191.2 264.441 191.129C264.399 191.059 264.376 190.979 264.373 190.897C264.37 190.815 264.387 190.733 264.423 190.66L268.037 183.383C268.098 183.279 268.196 183.203 268.31 183.17C268.424 183.137 268.546 183.149 268.651 183.205C268.757 183.26 268.838 183.355 268.878 183.469C268.919 183.584 268.916 183.71 268.869 183.822L265.255 191.097C265.216 191.176 265.157 191.243 265.084 191.289C265.01 191.335 264.926 191.36 264.84 191.36Z" fill="#0C0C0C"/>
<path d="M115.393 35.2482C115.393 35.2482 109.549 57.191 103.082 64.2437C84.4635 84.5476 75.2291 109.836 86.5699 126.424C97.9107 143.013 187.43 161.913 200.43 131.922C211.374 106.674 199.678 101.268 201.012 78.8345C201.615 68.6829 201.998 47.212 201.998 47.212" fill="#0A0A0A"/>
<path d="M185.358 115.223C185.2 115.201 183.45 145.049 149.705 142.447C126.343 140.648 118.014 115.181 117.478 115.181C119.997 114.63 124.238 113.831 125.357 113.217C129.034 111.186 133.587 109.073 134.773 101.733C135.456 97.5017 134.297 75.8546 134.654 71.5773L170.513 79.8005C170.012 88.8414 166.506 109.799 178.797 113.508C180.842 114.122 183.045 114.686 185.358 115.223Z" fill="#F9C2AD"/>
<path opacity="0.52" d="M171.016 104.943C170.454 103.083 170.093 101.166 169.937 99.2246C169.543 94.7951 169.622 90.3346 170.172 85.9227C162.883 84.9118 156.017 81.8208 150.353 77.0009C149.687 79.5274 146.025 90.5679 147.038 92.9697C148.957 97.5101 157.962 104.943 171.016 104.943Z" fill="#0C0C0C"/>
<path d="M163.356 99.4037C149.229 97.8866 132.429 88.4472 132.467 68.7136L132.501 50.9076C132.539 31.174 142.657 15.1966 160.739 15.2337C178.822 15.2701 192.307 31.2952 192.269 51.0288L192.254 58.912C192.24 66.4837 188.561 102.111 163.356 99.4037Z" fill="#F9C2AD"/>
<path opacity="0.52" d="M173.795 74.083C173.806 74.0837 173.818 74.0837 173.83 74.083C174.563 74.0794 175.296 74.0339 176.024 73.9469C177.114 73.8093 178.563 73.5127 178.565 72.5261C178.565 71.4011 175.592 59.2662 175.253 57.8832C175.24 57.8215 175.216 57.763 175.18 57.7113C175.145 57.6596 175.1 57.6158 175.048 57.5824C174.996 57.5491 174.938 57.5268 174.877 57.5171C174.816 57.5074 174.754 57.5103 174.695 57.5258C174.635 57.5412 174.579 57.5689 174.53 57.607C174.482 57.6452 174.441 57.6931 174.41 57.748C174.38 57.8028 174.36 57.8633 174.353 57.926C174.346 57.9887 174.351 58.0522 174.369 58.1128C175.638 63.282 177.653 71.7668 177.652 72.5239C177.473 72.8397 175.65 73.1484 173.832 73.1456C173.715 73.1472 173.603 73.1948 173.519 73.2786C173.436 73.3623 173.386 73.4758 173.382 73.5957C173.377 73.7156 173.417 73.8328 173.494 73.9232C173.571 74.0136 173.679 74.0703 173.795 74.0816V74.083Z" fill="#0C0C0C"/>
<path d="M117.426 54.152L133.618 54.2803C146.382 51.6825 153.889 31.3151 153.889 31.3151C153.889 31.3151 165.596 48.5557 201.996 47.2126C201.996 47.2126 204.308 -4.13568 150.081 0.267863C132.598 1.68795 117.473 16.5461 114.676 39.8285C112.717 56.1438 117.426 54.152 117.426 54.152Z" fill="#0A0A0A"/>
<path d="M133.579 74.7305C128.083 74.7198 123.64 68.6709 123.651 63.0233C123.662 57.3758 128.123 54.2718 133.618 54.2832L136.442 58.0723L138.304 74.7404L133.579 74.7305Z" fill="#F9C2AD"/>
<path d="M180.142 49.4048C181.88 48.6828 183.775 48.4543 185.628 48.7432C186.542 48.8799 187.431 49.1567 188.265 49.5645C189.091 49.9645 189.865 50.4699 190.568 51.0687C190.661 51.1491 190.72 51.2629 190.734 51.3868C190.748 51.5106 190.715 51.6353 190.643 51.7353C190.57 51.8353 190.463 51.9032 190.344 51.925C190.224 51.9468 190.101 51.9211 190 51.8529L189.969 51.8308C189.311 51.3211 188.593 50.8984 187.832 50.5725C187.081 50.2462 186.285 50.0385 185.473 49.9566C183.866 49.7824 182.242 50.0477 180.766 50.7258L180.718 50.7493C180.632 50.7993 180.538 50.8306 180.44 50.8413C180.342 50.8519 180.242 50.8416 180.148 50.811C180.055 50.7805 179.968 50.7303 179.893 50.6637C179.819 50.5971 179.759 50.5154 179.717 50.4238C179.675 50.3322 179.652 50.2327 179.649 50.1315C179.646 50.0302 179.663 49.9295 179.7 49.8355C179.737 49.7415 179.792 49.6563 179.862 49.5853C179.932 49.5142 180.016 49.4589 180.108 49.4226L180.142 49.4048Z" fill="#0C0C0C"/>
<path d="M165.562 50.0379C164.092 49.3467 162.47 49.0674 160.861 49.228C160.05 49.3037 159.255 49.5043 158.502 49.8233C157.739 50.1426 157.017 50.5594 156.355 51.0637L156.326 51.0844C156.223 51.1592 156.097 51.1897 155.973 51.1691C155.849 51.1486 155.738 51.0787 155.664 50.9747C155.59 50.8707 155.559 50.7409 155.577 50.6134C155.596 50.486 155.662 50.3711 155.763 50.2938C156.471 49.701 157.249 49.2024 158.079 48.8096C158.915 48.409 159.806 48.1398 160.72 48.0111C162.576 47.7389 164.469 47.9851 166.201 48.724C166.292 48.7582 166.376 48.811 166.446 48.8792C166.517 48.9475 166.573 49.0297 166.612 49.1211C166.651 49.2124 166.671 49.3109 166.672 49.4105C166.672 49.5101 166.653 49.6088 166.616 49.7007C166.578 49.7925 166.523 49.8755 166.453 49.9447C166.383 50.0138 166.3 50.0677 166.21 50.103C166.119 50.1384 166.022 50.1544 165.925 50.1502C165.828 50.146 165.733 50.1216 165.646 50.0785L165.618 50.0664L165.562 50.0379Z" fill="#0C0C0C"/>
<path d="M133.69 54.0836L133.621 53.6074C154.799 50.1926 153.675 29.2542 153.66 29.0432L154.126 29.0104C154.14 29.2257 155.301 50.5989 133.69 54.0836Z" fill="#0C0C0C"/>
<path d="M227.287 180.932C226.224 193.764 221.053 266.684 220.031 282.488H79.1899C78.3941 268.235 74.819 213.034 71.8044 185.16C68.9245 158.561 63.2707 140.785 67.4155 132.922C74.1807 120.07 79.5077 114.698 98.1014 112.644C106.921 111.698 115.824 111.989 124.567 113.508C124.567 113.508 125.547 133.893 148.931 135.027C180.763 136.57 178.646 113.564 178.795 113.508C185.356 111.043 205.605 109.77 215.664 116.594C234.854 129.614 229.54 153.741 227.287 180.932Z" fill="#01A2FD"/>
<path d="M184.603 60.8533C183.373 60.8533 182.376 59.8287 182.376 58.5649C182.376 57.301 183.373 56.2765 184.603 56.2765C185.833 56.2765 186.831 57.301 186.831 58.5649C186.831 59.8287 185.833 60.8533 184.603 60.8533Z" fill="#0C0C0C"/>
<path d="M162.759 59.6191C161.529 59.6191 160.532 58.5946 160.532 57.3307C160.532 56.0669 161.529 55.0424 162.759 55.0424C163.989 55.0424 164.986 56.0669 164.986 57.3307C164.986 58.5946 163.989 59.6191 162.759 59.6191Z" fill="#0C0C0C"/>
<path d="M226.209 189.261L227.144 189.315L226.019 209.69L225.084 209.636L226.209 189.261Z" fill="#0C0C0C"/>
<path d="M74.6782 219.258C74.5411 219.257 74.4091 219.204 74.3083 219.109C74.2075 219.013 74.1454 218.882 74.1343 218.742L72.6509 199.91C72.6451 199.836 72.6535 199.762 72.6755 199.692C72.6975 199.622 72.7327 199.557 72.7792 199.501C72.8256 199.445 72.8824 199.399 72.9462 199.365C73.01 199.331 73.0797 199.311 73.1512 199.305C73.2226 199.299 73.2945 199.308 73.3628 199.33C73.431 199.353 73.4943 199.389 73.5489 199.437C73.6036 199.485 73.6485 199.543 73.6812 199.608C73.7139 199.674 73.7337 199.746 73.7395 199.819L75.2228 218.652C75.2286 218.725 75.2203 218.799 75.1983 218.869C75.1763 218.939 75.141 219.004 75.0946 219.06C75.0481 219.116 74.9914 219.163 74.9275 219.196C74.8637 219.23 74.7941 219.25 74.7226 219.256C74.7073 219.258 74.6928 219.258 74.6782 219.258Z" fill="#292A2E"/>
<path d="M230.513 370.653C230.513 370.653 249.338 367.949 255.976 384.593C262.613 401.236 274.559 392.925 274.559 392.925L252.957 327.998L221.389 339.089L230.513 370.653Z" fill="#01A2FD"/>
<path d="M11.3954 286.653C26.5202 274.223 42.8764 275.064 92.2831 275.543C110.08 275.692 189.048 275.599 229.369 275.794C241.677 275.854 261.194 276.263 271.626 277.096C297.91 279.193 305.307 283.978 307.312 292.637C307.955 295.409 325.687 316.816 202.913 332.108H118.583C4.48999 327.008 -0.265976 296.239 11.3954 286.653Z" fill="#262626"/>
<path d="M255.64 285.71C231.635 281.055 141.836 301.883 141.836 301.883C141.836 301.883 47.5632 277.951 31.8688 283.36C-0.331022 294.454 155.756 340.594 155.756 340.594C155.756 340.594 283.466 291.106 255.64 285.71Z" fill="#0A0A0A"/>
<path d="M238.841 336.601L236.011 372.927C236.011 372.927 74.2702 352.018 27.2814 344.846C16.4387 343.191 -5.42073 333.261 1.23834 306.618C7.07179 283.277 11.51 279.182 50.6367 284.925C85.3627 290.024 238.841 336.601 238.841 336.601Z" fill="#262626"/>
<path d="M237.148 355.337L236.011 372.927L155.609 362.982L237.148 355.337Z" fill="#0A0A0A"/>
<path d="M84.5232 367.203C84.5232 367.203 65.8899 362.783 57.803 378.859C49.7161 394.935 38.4599 385.519 38.4599 385.519L65.706 322.413L96.3899 336.401L84.5232 367.203Z" fill="#01A2FD"/>
<path d="M75.2866 324.229L80.4901 372.882C80.4901 372.882 250.756 359.206 296.158 344.846C306.635 341.533 323.441 332.104 317.241 305.344C311.944 282.486 298.639 277.584 263.915 282.681C229.191 287.778 75.2866 324.229 75.2866 324.229Z" fill="#262626"/>
<path d="M235.788 234.095L214.881 226.565L217.882 226.351C218.849 226.262 219.748 225.8 220.396 225.056C221.045 224.313 221.394 223.344 221.374 222.346C221.346 221.832 221.217 221.328 220.994 220.866C220.771 220.404 220.458 219.994 220.076 219.661C219.693 219.327 219.248 219.077 218.768 218.926C218.289 218.775 217.784 218.726 217.285 218.782L180.296 222.821L181.257 235.035C181.556 238.829 182.95 242.444 185.262 245.418C187.573 248.392 190.696 250.589 194.231 251.727L210.249 256.854C211.077 257.137 211.974 257.118 212.789 256.799C213.604 256.481 214.287 255.883 214.722 255.106C215.1 254.397 215.248 253.581 215.143 252.78C215.039 251.978 214.688 251.231 214.141 250.649C214.176 250.623 214.206 250.59 214.229 250.552C214.252 250.514 214.266 250.472 214.272 250.427C214.279 250.383 214.276 250.338 214.264 250.295C214.253 250.252 214.233 250.212 214.206 250.177L217.159 251.128C218.08 251.446 219.084 251.393 219.968 250.979C220.852 250.566 221.55 249.823 221.921 248.9C222.225 248.064 222.231 247.145 221.941 246.304C221.65 245.463 221.079 244.754 220.33 244.302C220.364 244.284 220.395 244.26 220.421 244.231L221.635 244.622C222.462 244.905 223.359 244.885 224.174 244.567C224.989 244.248 225.672 243.65 226.107 242.874C226.567 242.013 226.684 241.002 226.434 240.055C226.184 239.107 225.587 238.295 224.767 237.791C224.774 237.765 224.778 237.74 224.778 237.714L233.485 240.85C234.354 241.151 235.302 241.087 236.125 240.674C236.948 240.261 237.58 239.531 237.883 238.642C238.186 237.754 238.136 236.779 237.744 235.928C237.353 235.077 236.65 234.419 235.79 234.096L235.788 234.095Z" fill="#F9C2AD"/>
<path opacity="0.2" d="M224.434 238.063C224.394 238.063 224.354 238.056 224.316 238.041L215.894 234.895C215.849 234.88 215.808 234.856 215.773 234.825C215.738 234.793 215.709 234.755 215.689 234.712C215.668 234.669 215.656 234.622 215.654 234.574C215.652 234.527 215.659 234.479 215.674 234.434C215.69 234.389 215.715 234.347 215.747 234.312C215.779 234.277 215.817 234.249 215.86 234.23C215.902 234.21 215.948 234.2 215.995 234.199C216.041 234.198 216.088 234.207 216.131 234.225L224.553 237.372C224.629 237.401 224.693 237.457 224.734 237.529C224.774 237.601 224.788 237.686 224.774 237.768C224.76 237.851 224.718 237.925 224.656 237.979C224.594 238.033 224.516 238.062 224.434 238.063Z" fill="#0A0A0A"/>
<path opacity="0.2" d="M220.177 244.355C220.138 244.355 220.098 244.348 220.061 244.334L213.423 241.914C213.379 241.899 213.338 241.876 213.302 241.845C213.267 241.814 213.238 241.776 213.217 241.733C213.197 241.69 213.185 241.643 213.182 241.596C213.179 241.548 213.186 241.5 213.201 241.455C213.217 241.41 213.241 241.369 213.272 241.333C213.304 241.298 213.342 241.27 213.384 241.25C213.426 241.23 213.472 241.219 213.519 241.218C213.565 241.217 213.611 241.225 213.655 241.242L220.293 243.663C220.37 243.691 220.435 243.746 220.476 243.818C220.517 243.891 220.532 243.976 220.518 244.059C220.505 244.142 220.463 244.217 220.4 244.271C220.338 244.325 220.259 244.355 220.177 244.355Z" fill="#0A0A0A"/>
<path opacity="0.2" d="M213.926 250.739C213.884 250.739 213.842 250.731 213.803 250.715L210.694 249.497C210.61 249.461 210.544 249.394 210.508 249.309C210.473 249.224 210.471 249.128 210.503 249.041C210.535 248.954 210.599 248.884 210.68 248.845C210.762 248.806 210.855 248.801 210.941 248.831L214.05 250.05C214.125 250.079 214.188 250.135 214.228 250.208C214.268 250.281 214.281 250.365 214.267 250.447C214.252 250.529 214.21 250.603 214.148 250.656C214.085 250.71 214.007 250.739 213.926 250.739Z" fill="#0A0A0A"/>
<path d="M195.792 260.684L66.1645 282.766C62.1682 283.213 58.1255 282.702 54.3536 281.274C50.5817 279.846 47.1831 277.539 44.4246 274.534C41.6661 271.53 39.6226 267.909 38.4545 263.957C37.2865 260.005 37.0257 255.828 37.6924 251.755L64.8837 140.739C65.4506 137.277 66.6755 133.963 68.4886 130.988C70.3017 128.012 72.6674 125.432 75.4507 123.396C81.0718 119.284 88.0525 117.634 94.8572 118.811C101.662 119.987 107.733 123.893 111.735 129.669C115.737 135.444 117.343 142.617 116.198 149.609L95.449 226.143L189.642 212.922L195.792 260.684Z" fill="#01A2FD"/>
<path d="M78.552 228.632C78.4649 228.631 78.3811 228.597 78.3174 228.536C78.2537 228.475 78.2148 228.391 78.2083 228.302C78.2018 228.213 78.2283 228.124 78.2825 228.054C78.3367 227.984 78.4146 227.937 78.5007 227.923L94.6578 225.436C94.703 225.428 94.7492 225.43 94.7937 225.441C94.8381 225.452 94.88 225.472 94.9168 225.5C94.9536 225.528 94.9846 225.563 95.0079 225.604C95.0313 225.644 95.0465 225.689 95.0526 225.736C95.0661 225.829 95.0431 225.924 94.9884 226C94.9338 226.076 94.8521 226.126 94.7612 226.14L78.6041 228.626C78.5869 228.63 78.5695 228.631 78.552 228.632Z" fill="#0C0C0C"/>
<path d="M69.7735 283.279C69.728 283.282 69.6823 283.276 69.6391 283.261C69.5958 283.246 69.5559 283.222 69.5216 283.191C69.4873 283.16 69.4593 283.122 69.4391 283.08C69.419 283.038 69.407 282.992 69.4041 282.946C69.4011 282.899 69.4072 282.852 69.4219 282.807C69.4366 282.763 69.4596 282.722 69.4897 282.687C69.5199 282.652 69.5565 282.623 69.5974 282.602C69.6384 282.581 69.6829 282.569 69.7284 282.566L195.066 260.414L188.99 213.363L95.4489 226.144C95.3951 226.151 95.3403 226.146 95.289 226.127C95.2377 226.109 95.1913 226.078 95.1535 226.038C95.1158 225.998 95.0878 225.949 95.0717 225.896C95.0557 225.843 95.052 225.786 95.0611 225.731L105.184 180.861C105.19 180.814 105.206 180.77 105.23 180.73C105.254 180.69 105.286 180.655 105.323 180.628C105.36 180.6 105.403 180.581 105.447 180.571C105.492 180.56 105.538 180.56 105.583 180.568C105.628 180.576 105.671 180.593 105.71 180.617C105.749 180.642 105.782 180.675 105.808 180.713C105.835 180.751 105.854 180.794 105.864 180.84C105.874 180.886 105.875 180.933 105.868 180.979L95.8235 225.373L189.251 212.604C189.297 212.597 189.343 212.6 189.388 212.613C189.433 212.625 189.475 212.646 189.511 212.675C189.547 212.705 189.578 212.742 189.6 212.783C189.622 212.825 189.636 212.87 189.642 212.918L195.792 260.682C195.802 260.774 195.776 260.867 195.72 260.94C195.664 261.014 195.582 261.062 195.492 261.074L69.8186 283.274C69.8037 283.277 69.7887 283.278 69.7735 283.279Z" fill="#0C0C0C"/>
<path d="M190.857 271.802L220.585 177.902C221.108 176.252 222.125 174.814 223.491 173.794C224.858 172.774 226.503 172.225 228.192 172.225H349.308C350.571 172.225 351.816 172.532 352.941 173.121C354.067 173.71 355.04 174.565 355.782 175.615C356.524 176.665 357.014 177.881 357.211 179.162C357.407 180.444 357.306 181.756 356.915 182.99L327.186 276.887C326.664 278.537 325.647 279.975 324.28 280.995C322.914 282.014 321.268 282.564 319.58 282.564H198.463C197.2 282.564 195.956 282.257 194.831 281.668C193.706 281.079 192.733 280.224 191.991 279.174C191.249 278.125 190.759 276.91 190.562 275.628C190.365 274.347 190.466 273.036 190.857 271.802Z" fill="#292A2E"/>
<path d="M134.032 274.949H215.107C217.128 274.949 218.765 276.632 218.765 278.708V278.805C218.765 280.881 217.128 282.563 215.107 282.563H134.032C132.012 282.563 130.374 280.881 130.374 278.805V278.708C130.374 276.632 132.012 274.949 134.032 274.949Z" fill="#292A2E"/>
<path d="M134.359 274.374H221.469C223.67 274.374 225.454 276.207 225.454 278.468V278.469C225.454 280.731 223.67 282.564 221.469 282.564H134.359C132.158 282.564 130.373 280.731 130.373 278.469V278.468C130.373 276.207 132.158 274.374 134.359 274.374Z" fill="black"/>
<path d="M134.359 283.277H221.469C222.7 283.261 223.876 282.748 224.741 281.848C225.606 280.948 226.092 279.734 226.092 278.469C226.092 277.204 225.606 275.989 224.741 275.089C223.876 274.189 222.7 273.676 221.469 273.661H134.359C133.128 273.676 131.952 274.189 131.087 275.089C130.222 275.989 129.736 277.204 129.736 278.469C129.736 279.734 130.222 280.948 131.087 281.848C131.952 282.748 133.128 283.261 134.359 283.277ZM221.469 275.086C222.334 275.099 223.159 275.461 223.766 276.094C224.373 276.727 224.713 277.58 224.713 278.469C224.713 279.357 224.373 280.21 223.766 280.843C223.159 281.476 222.334 281.838 221.469 281.851H134.359C133.494 281.838 132.669 281.476 132.062 280.843C131.455 280.21 131.115 279.357 131.115 278.469C131.115 277.58 131.455 276.727 132.062 276.094C132.669 275.461 133.494 275.099 134.359 275.086H221.469Z" fill="#292A2E"/>
<path d="M190.857 271.802L220.585 177.902C221.108 176.252 222.125 174.814 223.491 173.794C224.858 172.774 226.503 172.225 228.192 172.225H349.308C350.571 172.225 351.816 172.532 352.941 173.121C354.067 173.71 355.04 174.565 355.782 175.615C356.524 176.665 357.014 177.881 357.211 179.162C357.407 180.444 357.306 181.756 356.915 182.99L327.186 276.887C326.664 278.537 325.647 279.975 324.28 280.995C322.914 282.014 321.268 282.564 319.58 282.564H198.463C197.2 282.564 195.956 282.257 194.831 281.668C193.706 281.079 192.733 280.224 191.991 279.174C191.249 278.125 190.759 276.91 190.562 275.628C190.365 274.347 190.466 273.036 190.857 271.802Z" fill="black"/>
<path d="M198.463 283.277H319.58C321.415 283.28 323.205 282.684 324.69 281.576C326.176 280.467 327.28 278.903 327.845 277.108L357.575 183.208C357.999 181.867 358.108 180.443 357.893 179.051C357.678 177.659 357.146 176.339 356.34 175.198C355.534 174.058 354.476 173.13 353.254 172.49C352.032 171.85 350.68 171.516 349.308 171.516H228.188C226.353 171.513 224.563 172.108 223.077 173.217C221.592 174.325 220.487 175.89 219.922 177.684L190.196 271.582C189.773 272.922 189.664 274.347 189.879 275.739C190.093 277.131 190.625 278.451 191.432 279.591C192.238 280.731 193.295 281.659 194.517 282.299C195.739 282.939 197.091 283.273 198.463 283.273V283.277ZM349.308 172.939C350.461 172.938 351.598 173.219 352.625 173.757C353.653 174.294 354.542 175.075 355.219 176.033C355.897 176.992 356.344 178.102 356.524 179.272C356.704 180.442 356.612 181.64 356.255 182.767L326.526 276.667C326.052 278.175 325.123 279.49 323.875 280.422C322.627 281.354 321.123 281.854 319.58 281.851H198.463C197.31 281.851 196.173 281.57 195.146 281.032C194.119 280.494 193.23 279.714 192.552 278.756C191.875 277.797 191.428 276.687 191.248 275.517C191.068 274.347 191.16 273.15 191.516 272.023L221.245 178.122C221.719 176.614 222.647 175.3 223.895 174.368C225.143 173.437 226.646 172.936 228.188 172.939H349.308Z" fill="#292A2E"/>
<path d="M277.074 241.684C270.059 241.684 264.371 235.841 264.371 228.632C264.371 221.423 270.059 215.58 277.074 215.58C284.09 215.58 289.777 221.423 289.777 228.632C289.777 235.841 284.09 241.684 277.074 241.684Z" fill="black"/>
<path d="M277.074 242.397C279.724 242.397 282.314 241.59 284.517 240.077C286.72 238.565 288.437 236.415 289.451 233.9C290.465 231.384 290.73 228.616 290.213 225.946C289.696 223.276 288.42 220.823 286.547 218.898C284.673 216.973 282.286 215.662 279.687 215.131C277.089 214.6 274.395 214.873 271.947 215.915C269.499 216.957 267.407 218.721 265.935 220.985C264.463 223.249 263.677 225.91 263.678 228.633C263.682 232.282 265.095 235.781 267.606 238.361C270.118 240.942 273.523 242.393 277.074 242.397ZM277.074 216.292C279.449 216.292 281.771 217.016 283.746 218.372C285.721 219.728 287.26 221.655 288.169 223.91C289.078 226.164 289.316 228.645 288.852 231.039C288.389 233.433 287.245 235.631 285.566 237.357C283.887 239.083 281.747 240.258 279.417 240.734C277.088 241.21 274.673 240.966 272.479 240.032C270.285 239.099 268.409 237.517 267.089 235.488C265.77 233.459 265.065 231.073 265.065 228.633C265.069 225.361 266.335 222.225 268.586 219.911C270.838 217.598 273.89 216.296 277.074 216.292Z" fill="#292A2E"/>
</svg>
