<svg xmlns="http://www.w3.org/2000/svg" xmlns:xlink="http://www.w3.org/1999/xlink" width="65.559" height="60" viewBox="0 0 65.559 60">
  <defs>
    <clipPath id="clip-path">
      <path id="Path_515" data-name="Path 515" d="M158,144.3h64.635v59.744H158Zm0,0" transform="translate(-158 -144.305)"/>
    </clipPath>
    <clipPath id="clip-path-2">
      <path id="Path_519" data-name="Path 519" d="M213,151h13.845v9.235H213Zm0,0" transform="translate(-213 -151)"/>
    </clipPath>
    <clipPath id="clip-path-3">
      <path id="Path_524" data-name="Path 524" d="M157,144.3h65.559v60H157Zm0,0" transform="translate(-157 -144.305)"/>
    </clipPath>
  </defs>
  <g id="_2" data-name="2" transform="translate(-161.927 -144.305)">
    <g id="Group_293" data-name="Group 293" transform="translate(161.927 144.305)">
      <g id="Group_292" data-name="Group 292">
        <g id="Group_287" data-name="Group 287" transform="translate(0.924)" clip-path="url(#clip-path)">
          <path id="Path_514" data-name="Path 514" d="M158.031,172.474c.206-1.75,2.9,0,2.9,0s-4.091-4.8-2.089-6.3,5.249,3.128,8.437,3.128a6.76,6.76,0,0,0,1.468-.206c4.011-.927,11.771-4.675,16.02-5.537,3.189-.646,8.261-.444,11.37-.231,0-5.27-2.417-6.976-2.4-10.353,0-4.477,4-8.109,8.928-8.109a8.758,8.758,0,0,1,8.773,6.572c2.186,3.027,5.508,3.957,9.5,3.669a1.1,1.1,0,0,1,.905,1.829c-1.879,2.038-7.178,2.514-12.885,1.8a8.821,8.821,0,0,1-2.532,1.6v.007a21.538,21.538,0,0,1,1.818,19.1c-3.207,8.257-10.1,10.8-14.858,11.533V196a2.41,2.41,0,0,0,1.872,2.356l8.351,1.9a17.688,17.688,0,0,1-6.241.884l3.272,1.028c-6.6,1.894-13.048,2.179-19.27,0l3.9-2.5a2.856,2.856,0,0,0,1.313-2.41v-6.1c-4.57-.159-10.988-.743-14.162-2.673-2.918-1.771-6.179-5.368-7.482-6.879a3.023,3.023,0,0,0-1.288-.877,3.264,3.264,0,0,1-1.436-.956,2.723,2.723,0,0,1-.5-1.4,2.905,2.905,0,0,0-.923-1.9C159.632,175.439,157.886,173.657,158.031,172.474Zm0,0" transform="translate(-158.002 -144.348)" fill="#9df"/>
        </g>
        <path id="Path_516" data-name="Path 516" d="M187.2,203.51l-3.9,2.5c6.223,2.179,12.669,1.894,19.27,0l-3.272-1.028h-.007l-6-1.887a1.968,1.968,0,0,1-1.382-1.883v-6.15c-.895,0-2.071-.011-3.405-.065v6.1A2.864,2.864,0,0,1,187.2,203.51Zm0,0" transform="translate(-159.013 -148.185)" fill="#ffa520"/>
        <path id="Path_517" data-name="Path 517" d="M192.629,195.049v6.15a1.968,1.968,0,0,0,1.382,1.883l6,1.887h.007a17.653,17.653,0,0,0,6.237-.884l-8.347-1.9a2.41,2.41,0,0,1-1.872-2.356v-5.036A23.212,23.212,0,0,1,192.629,195.049Zm0,0" transform="translate(-159.727 -148.169)" fill="#ffa520"/>
        <g id="Group_288" data-name="Group 288" transform="translate(51.714 6.183)" clip-path="url(#clip-path-2)">
          <path id="Path_518" data-name="Path 518" d="M215.816,153.521a7.74,7.74,0,0,1-2.641,5.757c5.707.718,11,.242,12.885-1.8a1.1,1.1,0,0,0-.905-1.829c-3.99.289-7.312-.642-9.5-3.669A7.48,7.48,0,0,1,215.816,153.521Zm0,0" transform="translate(-213.013 -151.075)" fill="#ffa520"/>
        </g>
        <path id="Path_520" data-name="Path 520" d="M169.494,171.043a3.592,3.592,0,0,0-1.728,3.055,5.293,5.293,0,0,0,1.385,3.153,1.393,1.393,0,0,1,.094,1.62,2.192,2.192,0,0,0-.216,1.793c.444,1.616,5.642,4.379,9.866,4.653a.752.752,0,0,1,.7.729,1.938,1.938,0,0,0,.216.808c.819,1.551,10.912,3.441,18.848-1.656s4.747-14.909,4.747-14.909,1.115,12.561-10.468,15.024-11.471-.693-11.471-.693a3.32,3.32,0,0,0-2.55-1.18c-1.663,0-9.6-1.869-7.153-4.037,0,0,1.54-1.5-.588-3.174-2.745-2.15-.285-5.573-.285-5.573C170.388,170.812,169.923,170.942,169.494,171.043Zm0,0" transform="translate(-157.824 -146.293)" fill="#fff"/>
        <path id="Path_521" data-name="Path 521" d="M193.382,192.25c4.758-.729,11.652-3.275,14.858-11.533a21.546,21.546,0,0,0-1.822-19.1v-.007a9.612,9.612,0,0,1-3.755.754s14.317,18.628-7.781,26.2c0,0-16.309,4.5-27.863-6.147a12.016,12.016,0,0,0-2.8-2.554c-1.526-.92-3.64-5.663-.177-4.841,0,0-6.735-7.279-3.128-7.564v-.007a1.955,1.955,0,0,0-2.078,0c-2,1.5,2.089,6.3,2.089,6.3s-2.695-1.75-2.9,0c-.144,1.183,1.6,2.965,2.756,4a2.905,2.905,0,0,1,.923,1.9,2.723,2.723,0,0,0,.5,1.4,3.265,3.265,0,0,0,1.436.956,3.023,3.023,0,0,1,1.288.877c1.3,1.511,4.563,5.108,7.482,6.879,3.171,1.93,9.592,2.514,14.162,2.673,1.335.054,2.511.065,3.405.065A23.214,23.214,0,0,0,193.382,192.25Zm0,0" transform="translate(-157.078 -145.629)" fill="#fff"/>
        <path id="Path_522" data-name="Path 522" d="M206.445,154.429a1.135,1.135,0,0,0,.087.436,1.169,1.169,0,0,0,.245.372,1.2,1.2,0,0,0,.368.245,1.134,1.134,0,0,0,.869,0,1.119,1.119,0,0,0,.613-.617,1.144,1.144,0,0,0,0-.873,1.119,1.119,0,0,0-.613-.617,1.135,1.135,0,0,0-.869,0,1.2,1.2,0,0,0-.368.245,1.169,1.169,0,0,0-.245.372A1.135,1.135,0,0,0,206.445,154.429Zm0,0" transform="translate(-160.784 -144.992)"/>
        <g id="Group_289" data-name="Group 289" clip-path="url(#clip-path-3)">
          <path id="Path_523" data-name="Path 523" d="M158.193,171.266a1.777,1.777,0,0,1,1.111-.079c-.808-1.208-1.7-2.861-1.558-4.13a1.9,1.9,0,0,1,.743-1.342c1.367-1.021,2.98.054,4.686,1.2,1.346.9,2.734,1.829,4.058,1.829,1.623,0,5.227-1.41,8.715-2.774a62.271,62.271,0,0,1,8.672-2.958,48.552,48.552,0,0,1,10.937-.281,15.137,15.137,0,0,0-1.346-5.613,10.477,10.477,0,0,1-1.039-4.181c0-4.758,4.239-8.629,9.447-8.629a9.3,9.3,0,0,1,9.249,6.868c1.9,2.572,4.837,3.679,8.986,3.369a1.617,1.617,0,0,1,1.576.927,1.583,1.583,0,0,1-.256,1.778c-1.374,1.49-4.412,2.283-8.477,2.283a39.157,39.157,0,0,1-4.635-.3,9.627,9.627,0,0,1-1.937,1.288,22.264,22.264,0,0,1,1.551,19.061c-3.225,8.308-10.111,10.955-14.819,11.771v4.61a1.882,1.882,0,0,0,1.465,1.847l8.351,1.908a.521.521,0,0,1,.061,1,14.231,14.231,0,0,1-3.485.772l.494.155a.52.52,0,0,1-.011,1,37.22,37.22,0,0,1-10.263,1.551,27.884,27.884,0,0,1-9.318-1.562.52.52,0,0,1-.108-.927l3.9-2.5a2.335,2.335,0,0,0,1.071-1.973v-5.6c-4.841-.2-10.822-.844-13.913-2.731-2.983-1.818-6.309-5.49-7.6-6.984a2.571,2.571,0,0,0-1.068-.729,3.727,3.727,0,0,1-1.67-1.122,3.1,3.1,0,0,1-.606-1.67,2.4,2.4,0,0,0-.758-1.569c-2.074-1.861-3.055-3.358-2.926-4.448A1.291,1.291,0,0,1,158.193,171.266Zm63.221-14.725a.545.545,0,0,0,.083-.62.584.584,0,0,0-.566-.339c-3.853.285-6.767-.577-8.863-2.612a8.138,8.138,0,0,1-2.053,5.324C215.491,158.842,219.907,158.178,221.414,156.541Zm-19.992,43.728-6.327-1.447a2.917,2.917,0,0,1-2.273-2.861V191.51a23.025,23.025,0,0,1-2.37.184v5.642a1.448,1.448,0,0,0,1.021,1.389l5.916,1.861A22.347,22.347,0,0,0,201.423,200.268Zm-15.926-.2-2.976,1.912a30.065,30.065,0,0,0,16.2.112l-7.561-2.377a2.48,2.48,0,0,1-1.742-2.381V191.7c-.729,0-1.526-.018-2.374-.043v5.562A3.371,3.371,0,0,1,185.5,200.07Zm-24.411-24.025a3.4,3.4,0,0,1,1.1,2.247,2.141,2.141,0,0,0,.386,1.118,2.751,2.751,0,0,0,1.208.79,3.547,3.547,0,0,1,1.5,1.028c1.259,1.457,4.5,5.032,7.355,6.774,3.939,2.4,13.412,2.659,17.3,2.659,3.128,0,13.65-.826,17.777-11.46a21.2,21.2,0,0,0-1.551-18.275,10.12,10.12,0,0,1-3.542.635.519.519,0,0,1,0-1.039c4.643,0,8.416-3.405,8.416-7.59s-3.773-7.59-8.416-7.59-8.412,3.405-8.412,7.593a9.486,9.486,0,0,0,.963,3.784A16.006,16.006,0,0,1,196.6,162.8c1.3.1,2.182.191,2.294.2a.52.52,0,0,1-.108,1.035c-.09-.011-9.227-.967-13.957-.011a61.936,61.936,0,0,0-8.5,2.911,65.56,65.56,0,0,1-7.42,2.6,3.051,3.051,0,0,0-1.41,2.568,4.786,4.786,0,0,0,1.263,2.821,1.918,1.918,0,0,1,.137,2.226,1.711,1.711,0,0,0-.159,1.385c.361,1.3,5.332,4.008,9.4,4.271a1.274,1.274,0,0,1,1.187,1.23,1.352,1.352,0,0,0,.159.588c.061.115.516.5,1.861.855a22.072,22.072,0,0,0,16.247-2.713c7.5-4.816,4.661-13.924,4.534-14.31a.518.518,0,1,1,.985-.321c.032.1,3.214,10.252-4.964,15.508a22.669,22.669,0,0,1-12.185,3.391,19.822,19.822,0,0,1-4.881-.552,4.228,4.228,0,0,1-2.511-1.371,2.372,2.372,0,0,1-.278-1.035.236.236,0,0,0-.224-.231c-4.17-.274-9.769-3-10.331-5.032a2.745,2.745,0,0,1,.274-2.2.87.87,0,0,0-.051-1.017,5.792,5.792,0,0,1-1.5-3.488,3.952,3.952,0,0,1,.736-2.33c-1.623-.018-3.2-1.068-4.592-2-1.688-1.129-2.767-1.775-3.492-1.23a.831.831,0,0,0-.335.62c-.162,1.439,1.753,4.044,2.507,4.924a.525.525,0,0,1,0,.682.519.519,0,0,1-.671.094c-.6-.386-1.616-.833-1.973-.664-.029.014-.108.05-.137.289C158.435,173.03,159.081,174.242,161.086,176.045Zm0,0" transform="translate(-157.035 -144.305)"/>
        </g>
      </g>
    </g>
  </g>
</svg>
